<svg width="28" height="28" viewBox="0 0 28 28" fill="none" xmlns="http://www.w3.org/2000/svg">
<mask id="path-1-inside-1_17088_3333" fill="white">
<path d="M0 4.77398C0 2.13738 2.13738 0 4.77398 0H23.161C25.7976 0 27.9349 2.13738 27.9349 4.77398V23.161C27.9349 25.7976 25.7976 27.9349 23.161 27.9349H4.77398C2.13738 27.9349 0 25.7976 0 23.161V4.77398Z"/>
</mask>
<path d="M0 4.77398C0 2.13738 2.13738 0 4.77398 0H23.161C25.7976 0 27.9349 2.13738 27.9349 4.77398V23.161C27.9349 25.7976 25.7976 27.9349 23.161 27.9349H4.77398C2.13738 27.9349 0 25.7976 0 23.161V4.77398Z" fill="white" fill-opacity="0.06"/>
<g clip-path="url(#paint0_diamond_17088_3333_clip_path)" data-figma-skip-parse="true" mask="url(#path-1-inside-1_17088_3333)"><g transform="matrix(0.0132979 0.0112684 -0.0112684 0.0425433 8.47857 6.93313)"><rect x="0" y="0" width="1572.13" height="557.326" fill="url(#paint0_diamond_17088_3333)" opacity="1" shape-rendering="crispEdges"/><rect x="0" y="0" width="1572.13" height="557.326" transform="scale(1 -1)" fill="url(#paint0_diamond_17088_3333)" opacity="1" shape-rendering="crispEdges"/><rect x="0" y="0" width="1572.13" height="557.326" transform="scale(-1 1)" fill="url(#paint0_diamond_17088_3333)" opacity="1" shape-rendering="crispEdges"/><rect x="0" y="0" width="1572.13" height="557.326" transform="scale(-1)" fill="url(#paint0_diamond_17088_3333)" opacity="1" shape-rendering="crispEdges"/></g></g><path d="M4.77398 0.457849H23.161V-0.457849H4.77398V0.457849ZM27.4771 4.77398V23.161H28.3928V4.77398H27.4771ZM23.161 27.4771H4.77398V28.3928H23.161V27.4771ZM0.457849 23.161V4.77398H-0.457849V23.161H0.457849ZM4.77398 27.4771C2.39025 27.4771 0.457849 25.5447 0.457849 23.161H-0.457849C-0.457849 26.0504 1.88452 28.3928 4.77398 28.3928V27.4771ZM27.4771 23.161C27.4771 25.5447 25.5447 27.4771 23.161 27.4771V28.3928C26.0504 28.3928 28.3928 26.0504 28.3928 23.161H27.4771ZM23.161 0.457849C25.5447 0.457849 27.4771 2.39025 27.4771 4.77398H28.3928C28.3928 1.88452 26.0504 -0.457849 23.161 -0.457849V0.457849ZM4.77398 -0.457849C1.88452 -0.457849 -0.457849 1.88452 -0.457849 4.77398H0.457849C0.457849 2.39025 2.39025 0.457849 4.77398 0.457849V-0.457849Z" data-figma-gradient-fill="{&#34;type&#34;:&#34;GRADIENT_DIAMOND&#34;,&#34;stops&#34;:[{&#34;color&#34;:{&#34;r&#34;:1.0,&#34;g&#34;:1.0,&#34;b&#34;:1.0,&#34;a&#34;:1.0},&#34;position&#34;:0.0},{&#34;color&#34;:{&#34;r&#34;:0.40000000596046448,&#34;g&#34;:0.40000000596046448,&#34;b&#34;:0.40000000596046448,&#34;a&#34;:0.0},&#34;position&#34;:1.0}],&#34;stopsVar&#34;:[{&#34;color&#34;:{&#34;r&#34;:1.0,&#34;g&#34;:1.0,&#34;b&#34;:1.0,&#34;a&#34;:1.0},&#34;position&#34;:0.0},{&#34;color&#34;:{&#34;r&#34;:0.40000000596046448,&#34;g&#34;:0.40000000596046448,&#34;b&#34;:0.40000000596046448,&#34;a&#34;:0.0},&#34;position&#34;:1.0}],&#34;transform&#34;:{&#34;m00&#34;:26.595735549926758,&#34;m01&#34;:-22.536886215209961,&#34;m02&#34;:6.4491434097290039,&#34;m10&#34;:22.536886215209961,&#34;m11&#34;:85.086616516113281,&#34;m12&#34;:-46.878620147705078},&#34;opacity&#34;:1.0,&#34;blendMode&#34;:&#34;NORMAL&#34;,&#34;visible&#34;:true}" mask="url(#path-1-inside-1_17088_3333)"/>
<g clip-path="url(#clip0_17088_3333)">
<path d="M10.1342 19.9681H12.8009C12.8009 20.7014 12.2009 21.3014 11.4675 21.3014C10.7342 21.3014 10.1342 20.7014 10.1342 19.9681ZM8.80086 19.3014H14.1342V17.9681H8.80086V19.3014ZM16.4675 12.9681C16.4675 15.5148 14.6942 16.8748 13.9542 17.3014H8.98086C8.24086 16.8748 6.46753 15.5148 6.46753 12.9681C6.46753 10.2081 8.70753 7.9681 11.4675 7.9681C14.2275 7.9681 16.4675 10.2081 16.4675 12.9681ZM15.1342 12.9681C15.1342 10.9481 13.4875 9.30143 11.4675 9.30143C9.44753 9.30143 7.80086 10.9481 7.80086 12.9681C7.80086 14.6148 8.7942 15.5614 9.36753 15.9681H13.5675C14.1409 15.5614 15.1342 14.6148 15.1342 12.9681ZM19.7142 11.5481L18.8009 11.9681L19.7142 12.3881L20.1342 13.3014L20.5542 12.3881L21.4675 11.9681L20.5542 11.5481L20.1342 10.6348L19.7142 11.5481ZM18.1342 10.6348L18.7609 9.26143L20.1342 8.63477L18.7609 8.0081L18.1342 6.63477L17.5075 8.0081L16.1342 8.63477L17.5075 9.26143L18.1342 10.6348Z" fill="white"/>
</g>
<defs>
<clipPath id="paint0_diamond_17088_3333_clip_path"><path d="M4.77398 0.457849H23.161V-0.457849H4.77398V0.457849ZM27.4771 4.77398V23.161H28.3928V4.77398H27.4771ZM23.161 27.4771H4.77398V28.3928H23.161V27.4771ZM0.457849 23.161V4.77398H-0.457849V23.161H0.457849ZM4.77398 27.4771C2.39025 27.4771 0.457849 25.5447 0.457849 23.161H-0.457849C-0.457849 26.0504 1.88452 28.3928 4.77398 28.3928V27.4771ZM27.4771 23.161C27.4771 25.5447 25.5447 27.4771 23.161 27.4771V28.3928C26.0504 28.3928 28.3928 26.0504 28.3928 23.161H27.4771ZM23.161 0.457849C25.5447 0.457849 27.4771 2.39025 27.4771 4.77398H28.3928C28.3928 1.88452 26.0504 -0.457849 23.161 -0.457849V0.457849ZM4.77398 -0.457849C1.88452 -0.457849 -0.457849 1.88452 -0.457849 4.77398H0.457849C0.457849 2.39025 2.39025 0.457849 4.77398 0.457849V-0.457849Z" mask="url(#path-1-inside-1_17088_3333)"/></clipPath><linearGradient id="paint0_diamond_17088_3333" x1="0" y1="0" x2="500" y2="500" gradientUnits="userSpaceOnUse">
<stop stop-color="white"/>
<stop offset="1" stop-color="#666666" stop-opacity="0"/>
</linearGradient>
<clipPath id="clip0_17088_3333">
<rect width="16" height="16" fill="white" transform="translate(5.96753 5.96777)"/>
</clipPath>
</defs>
</svg>
