<svg width="28" height="28" viewBox="0 0 28 28" fill="none" xmlns="http://www.w3.org/2000/svg">
<mask id="path-1-inside-1_17088_3329" fill="white">
<path d="M0 4.77398C0 2.13738 2.13738 0 4.77398 0H23.161C25.7976 0 27.9349 2.13738 27.9349 4.77398V23.161C27.9349 25.7976 25.7976 27.9349 23.161 27.9349H4.77398C2.13738 27.9349 0 25.7976 0 23.161V4.77398Z"/>
</mask>
<path d="M0 4.77398C0 2.13738 2.13738 0 4.77398 0H23.161C25.7976 0 27.9349 2.13738 27.9349 4.77398V23.161C27.9349 25.7976 25.7976 27.9349 23.161 27.9349H4.77398C2.13738 27.9349 0 25.7976 0 23.161V4.77398Z" fill="white" fill-opacity="0.06"/>
<g clip-path="url(#paint0_diamond_17088_3329_clip_path)" data-figma-skip-parse="true" mask="url(#path-1-inside-1_17088_3329)"><g transform="matrix(0.0132979 0.0112684 -0.0112684 0.0425433 8.47857 6.93313)"><rect x="0" y="0" width="1572.13" height="557.326" fill="url(#paint0_diamond_17088_3329)" opacity="1" shape-rendering="crispEdges"/><rect x="0" y="0" width="1572.13" height="557.326" transform="scale(1 -1)" fill="url(#paint0_diamond_17088_3329)" opacity="1" shape-rendering="crispEdges"/><rect x="0" y="0" width="1572.13" height="557.326" transform="scale(-1 1)" fill="url(#paint0_diamond_17088_3329)" opacity="1" shape-rendering="crispEdges"/><rect x="0" y="0" width="1572.13" height="557.326" transform="scale(-1)" fill="url(#paint0_diamond_17088_3329)" opacity="1" shape-rendering="crispEdges"/></g></g><path d="M4.77398 0.457849H23.161V-0.457849H4.77398V0.457849ZM27.4771 4.77398V23.161H28.3928V4.77398H27.4771ZM23.161 27.4771H4.77398V28.3928H23.161V27.4771ZM0.457849 23.161V4.77398H-0.457849V23.161H0.457849ZM4.77398 27.4771C2.39025 27.4771 0.457849 25.5447 0.457849 23.161H-0.457849C-0.457849 26.0504 1.88452 28.3928 4.77398 28.3928V27.4771ZM27.4771 23.161C27.4771 25.5447 25.5447 27.4771 23.161 27.4771V28.3928C26.0504 28.3928 28.3928 26.0504 28.3928 23.161H27.4771ZM23.161 0.457849C25.5447 0.457849 27.4771 2.39025 27.4771 4.77398H28.3928C28.3928 1.88452 26.0504 -0.457849 23.161 -0.457849V0.457849ZM4.77398 -0.457849C1.88452 -0.457849 -0.457849 1.88452 -0.457849 4.77398H0.457849C0.457849 2.39025 2.39025 0.457849 4.77398 0.457849V-0.457849Z" data-figma-gradient-fill="{&#34;type&#34;:&#34;GRADIENT_DIAMOND&#34;,&#34;stops&#34;:[{&#34;color&#34;:{&#34;r&#34;:1.0,&#34;g&#34;:1.0,&#34;b&#34;:1.0,&#34;a&#34;:1.0},&#34;position&#34;:0.0},{&#34;color&#34;:{&#34;r&#34;:0.40000000596046448,&#34;g&#34;:0.40000000596046448,&#34;b&#34;:0.40000000596046448,&#34;a&#34;:0.0},&#34;position&#34;:1.0}],&#34;stopsVar&#34;:[{&#34;color&#34;:{&#34;r&#34;:1.0,&#34;g&#34;:1.0,&#34;b&#34;:1.0,&#34;a&#34;:1.0},&#34;position&#34;:0.0},{&#34;color&#34;:{&#34;r&#34;:0.40000000596046448,&#34;g&#34;:0.40000000596046448,&#34;b&#34;:0.40000000596046448,&#34;a&#34;:0.0},&#34;position&#34;:1.0}],&#34;transform&#34;:{&#34;m00&#34;:26.595735549926758,&#34;m01&#34;:-22.536886215209961,&#34;m02&#34;:6.4491434097290039,&#34;m10&#34;:22.536886215209961,&#34;m11&#34;:85.086616516113281,&#34;m12&#34;:-46.878620147705078},&#34;opacity&#34;:1.0,&#34;blendMode&#34;:&#34;NORMAL&#34;,&#34;visible&#34;:true}" mask="url(#path-1-inside-1_17088_3329)"/>
<path d="M18.9685 10.9678L19.5951 9.59444L20.9685 8.96777L19.5951 8.34111L18.9685 6.96777L18.3418 8.34111L16.9685 8.96777L18.3418 9.59444L18.9685 10.9678Z" fill="white"/>
<path d="M11.3018 10.9678L11.9285 9.59444L13.3018 8.96777L11.9285 8.34111L11.3018 6.96777L10.6751 8.34111L9.3018 8.96777L10.6751 9.59444L11.3018 10.9678Z" fill="white"/>
<path d="M18.9685 14.6344L18.3418 16.0078L16.9685 16.6344L18.3418 17.2611L18.9685 18.6344L19.5951 17.2611L20.9685 16.6344L19.5951 16.0078L18.9685 14.6344Z" fill="white"/>
<path d="M17.4418 12.3811L15.5551 10.4944C15.4218 10.3678 15.2551 10.3011 15.0818 10.3011C14.9085 10.3011 14.7418 10.3678 14.6085 10.4944L7.1618 17.9411C6.9018 18.2011 6.9018 18.6211 7.1618 18.8811L9.04846 20.7678C9.1818 20.9011 9.34846 20.9678 9.5218 20.9678C9.69513 20.9678 9.8618 20.9011 9.99513 20.7744L17.4418 13.3278C17.7018 13.0678 17.7018 12.6411 17.4418 12.3811ZM15.0818 11.9144L16.0218 12.8544L15.2418 13.6344L14.3018 12.6944L15.0818 11.9144ZM9.5218 19.3611L8.5818 18.4211L13.3618 13.6344L14.3018 14.5744L9.5218 19.3611Z" fill="white"/>
<defs>
<clipPath id="paint0_diamond_17088_3329_clip_path"><path d="M4.77398 0.457849H23.161V-0.457849H4.77398V0.457849ZM27.4771 4.77398V23.161H28.3928V4.77398H27.4771ZM23.161 27.4771H4.77398V28.3928H23.161V27.4771ZM0.457849 23.161V4.77398H-0.457849V23.161H0.457849ZM4.77398 27.4771C2.39025 27.4771 0.457849 25.5447 0.457849 23.161H-0.457849C-0.457849 26.0504 1.88452 28.3928 4.77398 28.3928V27.4771ZM27.4771 23.161C27.4771 25.5447 25.5447 27.4771 23.161 27.4771V28.3928C26.0504 28.3928 28.3928 26.0504 28.3928 23.161H27.4771ZM23.161 0.457849C25.5447 0.457849 27.4771 2.39025 27.4771 4.77398H28.3928C28.3928 1.88452 26.0504 -0.457849 23.161 -0.457849V0.457849ZM4.77398 -0.457849C1.88452 -0.457849 -0.457849 1.88452 -0.457849 4.77398H0.457849C0.457849 2.39025 2.39025 0.457849 4.77398 0.457849V-0.457849Z" mask="url(#path-1-inside-1_17088_3329)"/></clipPath><linearGradient id="paint0_diamond_17088_3329" x1="0" y1="0" x2="500" y2="500" gradientUnits="userSpaceOnUse">
<stop stop-color="white"/>
<stop offset="1" stop-color="#666666" stop-opacity="0"/>
</linearGradient>
</defs>
</svg>
