<svg width="28" height="28" viewBox="0 0 28 28" fill="none" xmlns="http://www.w3.org/2000/svg">
<mask id="path-1-inside-1_17088_3337" fill="white">
<path d="M0 4.77398C0 2.13738 2.13738 0 4.77398 0H23.161C25.7976 0 27.9349 2.13738 27.9349 4.77398V23.161C27.9349 25.7976 25.7976 27.9349 23.161 27.9349H4.77398C2.13738 27.9349 0 25.7976 0 23.161V4.77398Z"/>
</mask>
<path d="M0 4.77398C0 2.13738 2.13738 0 4.77398 0H23.161C25.7976 0 27.9349 2.13738 27.9349 4.77398V23.161C27.9349 25.7976 25.7976 27.9349 23.161 27.9349H4.77398C2.13738 27.9349 0 25.7976 0 23.161V4.77398Z" fill="white" fill-opacity="0.06"/>
<g clip-path="url(#paint0_diamond_17088_3337_clip_path)" data-figma-skip-parse="true" mask="url(#path-1-inside-1_17088_3337)"><g transform="matrix(0.0132979 0.0112684 -0.0112684 0.0425433 8.47857 6.93313)"><rect x="0" y="0" width="1572.13" height="557.326" fill="url(#paint0_diamond_17088_3337)" opacity="1" shape-rendering="crispEdges"/><rect x="0" y="0" width="1572.13" height="557.326" transform="scale(1 -1)" fill="url(#paint0_diamond_17088_3337)" opacity="1" shape-rendering="crispEdges"/><rect x="0" y="0" width="1572.13" height="557.326" transform="scale(-1 1)" fill="url(#paint0_diamond_17088_3337)" opacity="1" shape-rendering="crispEdges"/><rect x="0" y="0" width="1572.13" height="557.326" transform="scale(-1)" fill="url(#paint0_diamond_17088_3337)" opacity="1" shape-rendering="crispEdges"/></g></g><path d="M4.77398 0.457849H23.161V-0.457849H4.77398V0.457849ZM27.4771 4.77398V23.161H28.3928V4.77398H27.4771ZM23.161 27.4771H4.77398V28.3928H23.161V27.4771ZM0.457849 23.161V4.77398H-0.457849V23.161H0.457849ZM4.77398 27.4771C2.39025 27.4771 0.457849 25.5447 0.457849 23.161H-0.457849C-0.457849 26.0504 1.88452 28.3928 4.77398 28.3928V27.4771ZM27.4771 23.161C27.4771 25.5447 25.5447 27.4771 23.161 27.4771V28.3928C26.0504 28.3928 28.3928 26.0504 28.3928 23.161H27.4771ZM23.161 0.457849C25.5447 0.457849 27.4771 2.39025 27.4771 4.77398H28.3928C28.3928 1.88452 26.0504 -0.457849 23.161 -0.457849V0.457849ZM4.77398 -0.457849C1.88452 -0.457849 -0.457849 1.88452 -0.457849 4.77398H0.457849C0.457849 2.39025 2.39025 0.457849 4.77398 0.457849V-0.457849Z" data-figma-gradient-fill="{&#34;type&#34;:&#34;GRADIENT_DIAMOND&#34;,&#34;stops&#34;:[{&#34;color&#34;:{&#34;r&#34;:1.0,&#34;g&#34;:1.0,&#34;b&#34;:1.0,&#34;a&#34;:1.0},&#34;position&#34;:0.0},{&#34;color&#34;:{&#34;r&#34;:0.40000000596046448,&#34;g&#34;:0.40000000596046448,&#34;b&#34;:0.40000000596046448,&#34;a&#34;:0.0},&#34;position&#34;:1.0}],&#34;stopsVar&#34;:[{&#34;color&#34;:{&#34;r&#34;:1.0,&#34;g&#34;:1.0,&#34;b&#34;:1.0,&#34;a&#34;:1.0},&#34;position&#34;:0.0},{&#34;color&#34;:{&#34;r&#34;:0.40000000596046448,&#34;g&#34;:0.40000000596046448,&#34;b&#34;:0.40000000596046448,&#34;a&#34;:0.0},&#34;position&#34;:1.0}],&#34;transform&#34;:{&#34;m00&#34;:26.595735549926758,&#34;m01&#34;:-22.536886215209961,&#34;m02&#34;:6.4491434097290039,&#34;m10&#34;:22.536886215209961,&#34;m11&#34;:85.086616516113281,&#34;m12&#34;:-46.878620147705078},&#34;opacity&#34;:1.0,&#34;blendMode&#34;:&#34;NORMAL&#34;,&#34;visible&#34;:true}" mask="url(#path-1-inside-1_17088_3337)"/>
<path d="M13.9674 20.6341C10.2941 20.6341 7.30078 17.6408 7.30078 13.9674C7.30078 10.2941 10.2941 7.30078 13.9674 7.30078C17.6408 7.30078 20.6341 9.99411 20.6341 13.3008C20.6341 15.5074 18.8408 17.3008 16.6341 17.3008H15.4541C15.2674 17.3008 15.1208 17.4474 15.1208 17.6341C15.1208 17.7141 15.1541 17.7874 15.2074 17.8541C15.4808 18.1674 15.6341 18.5608 15.6341 18.9674C15.6341 19.8874 14.8874 20.6341 13.9674 20.6341ZM13.9674 8.63411C11.0274 8.63411 8.63411 11.0274 8.63411 13.9674C8.63411 16.9074 11.0274 19.3008 13.9674 19.3008C14.1541 19.3008 14.3008 19.1541 14.3008 18.9674C14.3008 18.8608 14.2474 18.7808 14.2074 18.7341C13.9341 18.4274 13.7874 18.0341 13.7874 17.6341C13.7874 16.7141 14.5341 15.9674 15.4541 15.9674H16.6341C18.1074 15.9674 19.3008 14.7741 19.3008 13.3008C19.3008 10.7274 16.9074 8.63411 13.9674 8.63411Z" fill="white"/>
<path d="M10.3008 14.6341C10.8531 14.6341 11.3008 14.1864 11.3008 13.6341C11.3008 13.0818 10.8531 12.6341 10.3008 12.6341C9.7485 12.6341 9.30078 13.0818 9.30078 13.6341C9.30078 14.1864 9.7485 14.6341 10.3008 14.6341Z" fill="white"/>
<path d="M12.3008 11.9674C12.8531 11.9674 13.3008 11.5197 13.3008 10.9674C13.3008 10.4152 12.8531 9.96745 12.3008 9.96745C11.7485 9.96745 11.3008 10.4152 11.3008 10.9674C11.3008 11.5197 11.7485 11.9674 12.3008 11.9674Z" fill="white"/>
<path d="M15.6341 11.9674C16.1864 11.9674 16.6341 11.5197 16.6341 10.9674C16.6341 10.4152 16.1864 9.96745 15.6341 9.96745C15.0818 9.96745 14.6341 10.4152 14.6341 10.9674C14.6341 11.5197 15.0818 11.9674 15.6341 11.9674Z" fill="white"/>
<path d="M17.6341 14.6341C18.1864 14.6341 18.6341 14.1864 18.6341 13.6341C18.6341 13.0818 18.1864 12.6341 17.6341 12.6341C17.0818 12.6341 16.6341 13.0818 16.6341 13.6341C16.6341 14.1864 17.0818 14.6341 17.6341 14.6341Z" fill="white"/>
<defs>
<clipPath id="paint0_diamond_17088_3337_clip_path"><path d="M4.77398 0.457849H23.161V-0.457849H4.77398V0.457849ZM27.4771 4.77398V23.161H28.3928V4.77398H27.4771ZM23.161 27.4771H4.77398V28.3928H23.161V27.4771ZM0.457849 23.161V4.77398H-0.457849V23.161H0.457849ZM4.77398 27.4771C2.39025 27.4771 0.457849 25.5447 0.457849 23.161H-0.457849C-0.457849 26.0504 1.88452 28.3928 4.77398 28.3928V27.4771ZM27.4771 23.161C27.4771 25.5447 25.5447 27.4771 23.161 27.4771V28.3928C26.0504 28.3928 28.3928 26.0504 28.3928 23.161H27.4771ZM23.161 0.457849C25.5447 0.457849 27.4771 2.39025 27.4771 4.77398H28.3928C28.3928 1.88452 26.0504 -0.457849 23.161 -0.457849V0.457849ZM4.77398 -0.457849C1.88452 -0.457849 -0.457849 1.88452 -0.457849 4.77398H0.457849C0.457849 2.39025 2.39025 0.457849 4.77398 0.457849V-0.457849Z" mask="url(#path-1-inside-1_17088_3337)"/></clipPath><linearGradient id="paint0_diamond_17088_3337" x1="0" y1="0" x2="500" y2="500" gradientUnits="userSpaceOnUse">
<stop stop-color="white"/>
<stop offset="1" stop-color="#666666" stop-opacity="0"/>
</linearGradient>
</defs>
</svg>
