<svg width="28" height="28" viewBox="0 0 28 28" fill="none" xmlns="http://www.w3.org/2000/svg">
<mask id="path-1-inside-1_17088_3331" fill="white">
<path d="M0 4.77398C0 2.13738 2.13738 0 4.77398 0H23.161C25.7976 0 27.9349 2.13738 27.9349 4.77398V23.161C27.9349 25.7976 25.7976 27.9349 23.161 27.9349H4.77398C2.13738 27.9349 0 25.7976 0 23.161V4.77398Z"/>
</mask>
<path d="M0 4.77398C0 2.13738 2.13738 0 4.77398 0H23.161C25.7976 0 27.9349 2.13738 27.9349 4.77398V23.161C27.9349 25.7976 25.7976 27.9349 23.161 27.9349H4.77398C2.13738 27.9349 0 25.7976 0 23.161V4.77398Z" fill="white" fill-opacity="0.06"/>
<g clip-path="url(#paint0_diamond_17088_3331_clip_path)" data-figma-skip-parse="true" mask="url(#path-1-inside-1_17088_3331)"><g transform="matrix(0.0132979 0.0112684 -0.0112684 0.0425433 8.47857 6.93313)"><rect x="0" y="0" width="1572.13" height="557.326" fill="url(#paint0_diamond_17088_3331)" opacity="1" shape-rendering="crispEdges"/><rect x="0" y="0" width="1572.13" height="557.326" transform="scale(1 -1)" fill="url(#paint0_diamond_17088_3331)" opacity="1" shape-rendering="crispEdges"/><rect x="0" y="0" width="1572.13" height="557.326" transform="scale(-1 1)" fill="url(#paint0_diamond_17088_3331)" opacity="1" shape-rendering="crispEdges"/><rect x="0" y="0" width="1572.13" height="557.326" transform="scale(-1)" fill="url(#paint0_diamond_17088_3331)" opacity="1" shape-rendering="crispEdges"/></g></g><path d="M4.77398 0.457849H23.161V-0.457849H4.77398V0.457849ZM27.4771 4.77398V23.161H28.3928V4.77398H27.4771ZM23.161 27.4771H4.77398V28.3928H23.161V27.4771ZM0.457849 23.161V4.77398H-0.457849V23.161H0.457849ZM4.77398 27.4771C2.39025 27.4771 0.457849 25.5447 0.457849 23.161H-0.457849C-0.457849 26.0504 1.88452 28.3928 4.77398 28.3928V27.4771ZM27.4771 23.161C27.4771 25.5447 25.5447 27.4771 23.161 27.4771V28.3928C26.0504 28.3928 28.3928 26.0504 28.3928 23.161H27.4771ZM23.161 0.457849C25.5447 0.457849 27.4771 2.39025 27.4771 4.77398H28.3928C28.3928 1.88452 26.0504 -0.457849 23.161 -0.457849V0.457849ZM4.77398 -0.457849C1.88452 -0.457849 -0.457849 1.88452 -0.457849 4.77398H0.457849C0.457849 2.39025 2.39025 0.457849 4.77398 0.457849V-0.457849Z" data-figma-gradient-fill="{&#34;type&#34;:&#34;GRADIENT_DIAMOND&#34;,&#34;stops&#34;:[{&#34;color&#34;:{&#34;r&#34;:1.0,&#34;g&#34;:1.0,&#34;b&#34;:1.0,&#34;a&#34;:1.0},&#34;position&#34;:0.0},{&#34;color&#34;:{&#34;r&#34;:0.40000000596046448,&#34;g&#34;:0.40000000596046448,&#34;b&#34;:0.40000000596046448,&#34;a&#34;:0.0},&#34;position&#34;:1.0}],&#34;stopsVar&#34;:[{&#34;color&#34;:{&#34;r&#34;:1.0,&#34;g&#34;:1.0,&#34;b&#34;:1.0,&#34;a&#34;:1.0},&#34;position&#34;:0.0},{&#34;color&#34;:{&#34;r&#34;:0.40000000596046448,&#34;g&#34;:0.40000000596046448,&#34;b&#34;:0.40000000596046448,&#34;a&#34;:0.0},&#34;position&#34;:1.0}],&#34;transform&#34;:{&#34;m00&#34;:26.595735549926758,&#34;m01&#34;:-22.536886215209961,&#34;m02&#34;:6.4491434097290039,&#34;m10&#34;:22.536886215209961,&#34;m11&#34;:85.086616516113281,&#34;m12&#34;:-46.878620147705078},&#34;opacity&#34;:1.0,&#34;blendMode&#34;:&#34;NORMAL&#34;,&#34;visible&#34;:true}" mask="url(#path-1-inside-1_17088_3331)"/>
<path d="M18.6342 9.30111V18.6344H9.30086V9.30111H18.6342ZM18.6342 7.96777H9.30086C8.56753 7.96777 7.96753 8.56777 7.96753 9.30111V18.6344C7.96753 19.3678 8.56753 19.9678 9.30086 19.9678H18.6342C19.3675 19.9678 19.9675 19.3678 19.9675 18.6344V9.30111C19.9675 8.56777 19.3675 7.96777 18.6342 7.96777ZM15.3942 13.8744L13.3942 16.4544L11.9675 14.7278L9.96753 17.3011H17.9675L15.3942 13.8744Z" fill="white"/>
<defs>
<clipPath id="paint0_diamond_17088_3331_clip_path"><path d="M4.77398 0.457849H23.161V-0.457849H4.77398V0.457849ZM27.4771 4.77398V23.161H28.3928V4.77398H27.4771ZM23.161 27.4771H4.77398V28.3928H23.161V27.4771ZM0.457849 23.161V4.77398H-0.457849V23.161H0.457849ZM4.77398 27.4771C2.39025 27.4771 0.457849 25.5447 0.457849 23.161H-0.457849C-0.457849 26.0504 1.88452 28.3928 4.77398 28.3928V27.4771ZM27.4771 23.161C27.4771 25.5447 25.5447 27.4771 23.161 27.4771V28.3928C26.0504 28.3928 28.3928 26.0504 28.3928 23.161H27.4771ZM23.161 0.457849C25.5447 0.457849 27.4771 2.39025 27.4771 4.77398H28.3928C28.3928 1.88452 26.0504 -0.457849 23.161 -0.457849V0.457849ZM4.77398 -0.457849C1.88452 -0.457849 -0.457849 1.88452 -0.457849 4.77398H0.457849C0.457849 2.39025 2.39025 0.457849 4.77398 0.457849V-0.457849Z" mask="url(#path-1-inside-1_17088_3331)"/></clipPath><linearGradient id="paint0_diamond_17088_3331" x1="0" y1="0" x2="500" y2="500" gradientUnits="userSpaceOnUse">
<stop stop-color="white"/>
<stop offset="1" stop-color="#666666" stop-opacity="0"/>
</linearGradient>
</defs>
</svg>
