<svg width="32" height="32" viewBox="0 0 32 32" fill="none" xmlns="http://www.w3.org/2000/svg">
<g clip-path="url(#paint0_diamond_18157_12969_clip_path)" data-figma-skip-parse="true"><g transform="matrix(0.0239904 0.0226667 -0.0580113 0.229564 -3.7551 -6.66667)"><rect x="0" y="0" width="1610.61" height="136.261" fill="url(#paint0_diamond_18157_12969)" opacity="1" shape-rendering="crispEdges"/><rect x="0" y="0" width="1610.61" height="136.261" transform="scale(1 -1)" fill="url(#paint0_diamond_18157_12969)" opacity="1" shape-rendering="crispEdges"/><rect x="0" y="0" width="1610.61" height="136.261" transform="scale(-1 1)" fill="url(#paint0_diamond_18157_12969)" opacity="1" shape-rendering="crispEdges"/><rect x="0" y="0" width="1610.61" height="136.261" transform="scale(-1)" fill="url(#paint0_diamond_18157_12969)" opacity="1" shape-rendering="crispEdges"/></g></g><rect width="32" height="32" rx="16" data-figma-gradient-fill="{&#34;type&#34;:&#34;GRADIENT_DIAMOND&#34;,&#34;stops&#34;:[{&#34;color&#34;:{&#34;r&#34;:1.0,&#34;g&#34;:1.0,&#34;b&#34;:1.0,&#34;a&#34;:1.0},&#34;position&#34;:0.0},{&#34;color&#34;:{&#34;r&#34;:0.0,&#34;g&#34;:0.0,&#34;b&#34;:0.0,&#34;a&#34;:1.0},&#34;position&#34;:0.76399964094161987}],&#34;stopsVar&#34;:[{&#34;color&#34;:{&#34;r&#34;:1.0,&#34;g&#34;:1.0,&#34;b&#34;:1.0,&#34;a&#34;:1.0},&#34;position&#34;:0.0},{&#34;color&#34;:{&#34;r&#34;:0.0,&#34;g&#34;:0.0,&#34;b&#34;:0.0,&#34;a&#34;:1.0},&#34;position&#34;:0.76399964094161987}],&#34;transform&#34;:{&#34;m00&#34;:47.980785369873047,&#34;m01&#34;:-116.02253723144531,&#34;m02&#34;:30.265771865844727,&#34;m10&#34;:45.333351135253906,&#34;m11&#34;:459.12707519531250,&#34;m12&#34;:-258.89688110351562},&#34;opacity&#34;:1.0,&#34;blendMode&#34;:&#34;NORMAL&#34;,&#34;visible&#34;:true}"/>
<path d="M9.01348 22.1643L11.4802 11.2363C11.5321 11.0066 11.8495 10.9814 11.9369 11.2L13.5665 15.274C13.6072 15.3759 13.616 15.4877 13.5915 15.5947L12.044 22.365C11.9888 22.6066 11.7762 22.7795 11.5284 22.7843L9.5504 22.8227C9.20015 22.8295 8.93635 22.506 9.01348 22.1643Z" fill="white"/>
<path d="M18.4317 16.7155L20.0691 9.58299C20.1254 9.33783 20.3436 9.16406 20.5951 9.16406H22.4601C22.8056 9.16406 23.0621 9.48416 22.9868 9.82134L20.4357 21.2482C20.3833 21.4828 20.0569 21.5031 19.9758 21.2769L18.4496 17.0184C18.4148 16.9212 18.4086 16.8161 18.4317 16.7155Z" fill="white"/>
<path d="M14.7795 9.16406H12.4558C12.0798 9.16406 11.8191 9.5388 11.9497 9.8913L16.6168 22.484C16.6952 22.6956 16.8971 22.8361 17.1228 22.8361H19.3361C19.7103 22.8361 19.9709 22.4646 19.8436 22.1128L15.287 9.52012C15.2097 9.30642 15.0068 9.16406 14.7795 9.16406Z" fill="white"/>
<defs>
<clipPath id="paint0_diamond_18157_12969_clip_path"><rect width="32" height="32" rx="16"/></clipPath><linearGradient id="paint0_diamond_18157_12969" x1="0" y1="0" x2="500" y2="500" gradientUnits="userSpaceOnUse">
<stop stop-color="white"/>
<stop offset="0.764"/>
</linearGradient>
</defs>
</svg>
