<svg width="28" height="28" viewBox="0 0 28 28" fill="none" xmlns="http://www.w3.org/2000/svg">
<path d="M18.9947 15.0985C19.8185 15.0985 20.5435 14.6481 20.917 13.967L24.8496 6.83786C25.256 6.11286 24.7288 5.21211 23.8939 5.21211H7.63634L6.60376 3.01514H3.01172V5.21211H5.20869L9.16323 13.5496L7.68028 16.2299C6.87839 17.7019 7.93293 19.4924 9.60263 19.4924H22.7844V17.2954H9.60263L10.811 15.0985H18.9947ZM8.6799 7.40908H22.0265L18.9947 12.9015H11.2833L8.6799 7.40908ZM9.60263 20.5909C8.39429 20.5909 7.41664 21.5795 7.41664 22.7879C7.41664 23.9962 8.39429 24.9848 9.60263 24.9848C10.811 24.9848 11.7996 23.9962 11.7996 22.7879C11.7996 21.5795 10.811 20.5909 9.60263 20.5909ZM20.5875 20.5909C19.3791 20.5909 18.4015 21.5795 18.4015 22.7879C18.4015 23.9962 19.3791 24.9848 20.5875 24.9848C21.7958 24.9848 22.7844 23.9962 22.7844 22.7879C22.7844 21.5795 21.7958 20.5909 20.5875 20.5909Z" fill="white"/>
</svg>
